<svg width="121" height="154" viewBox="0 0 121 154" fill="none" xmlns="http://www.w3.org/2000/svg">
<path d="M41.7506 18.0318C45.6513 8.78934 56.6955 3.21749 66.4185 5.58669C76.1415 7.95589 80.8613 17.369 76.9606 26.6114L42.2728 108.801C38.3721 118.043 27.3279 123.615 17.6049 121.246C7.88196 118.877 3.1621 109.464 7.06284 100.221L41.7506 18.0318Z" fill="#7400AA"/>
<path d="M79.2494 16.7349C75.3487 7.49246 64.3045 1.92062 54.5815 4.28982C44.8585 6.65902 40.1387 16.0721 44.0394 25.3146L78.7272 107.504C82.6279 116.746 93.6721 122.318 103.395 119.949C113.118 117.58 117.838 108.167 113.937 98.9244L79.2494 16.7349Z" fill="#8B00CD"/>
<path d="M5.8877 142.062C5.62394 142.062 5.40963 142.002 5.24478 141.882C5.09092 141.761 4.99751 141.603 4.96454 141.406C4.93157 141.199 4.97003 140.969 5.07993 140.718L9.43199 131.131C9.57486 130.814 9.7452 130.59 9.94302 130.459C10.1518 130.317 10.3881 130.246 10.6519 130.246C10.9046 130.246 11.1299 130.317 11.3278 130.459C11.5366 130.59 11.7124 130.814 11.8553 131.131L16.2238 140.718C16.3447 140.969 16.3887 141.199 16.3557 141.406C16.3227 141.614 16.2293 141.778 16.0755 141.898C15.9216 142.007 15.7183 142.062 15.4655 142.062C15.1578 142.062 14.916 141.991 14.7402 141.849C14.5753 141.696 14.427 141.466 14.2951 141.16L13.2235 138.686L14.1137 139.26H7.15705L8.04724 138.686L6.9922 141.16C6.84933 141.477 6.70096 141.707 6.5471 141.849C6.39324 141.991 6.17344 142.062 5.8877 142.062ZM10.6189 132.655L8.311 138.112L7.88239 137.588H13.3884L12.9763 138.112L10.6519 132.655H10.6189Z" fill="#8B00CD"/>
<path d="M18.8637 142.062C18.534 142.062 18.2813 141.974 18.1054 141.8C17.9296 141.614 17.8417 141.352 17.8417 141.013V134.818C17.8417 134.48 17.9296 134.223 18.1054 134.048C18.2813 133.873 18.5286 133.786 18.8473 133.786C19.166 133.786 19.4133 133.873 19.5891 134.048C19.7649 134.223 19.8529 134.48 19.8529 134.818V135.933L19.6715 135.523C19.9133 134.944 20.287 134.507 20.7925 134.212C21.309 133.906 21.8915 133.753 22.5399 133.753C23.1883 133.753 23.7213 133.873 24.139 134.114C24.5566 134.354 24.8698 134.72 25.0786 135.212C25.2874 135.692 25.3918 136.304 25.3918 137.047V141.013C25.3918 141.352 25.3039 141.614 25.1281 141.8C24.9522 141.974 24.6995 142.062 24.3698 142.062C24.0401 142.062 23.7818 141.974 23.595 141.8C23.4191 141.614 23.3312 141.352 23.3312 141.013V137.146C23.3312 136.523 23.2103 136.069 22.9685 135.785C22.7377 135.501 22.3751 135.359 21.8805 135.359C21.2761 135.359 20.7925 135.55 20.4298 135.933C20.0781 136.304 19.9023 136.801 19.9023 137.424V141.013C19.9023 141.712 19.5561 142.062 18.8637 142.062Z" fill="#8B00CD"/>
<path d="M30.584 142.095C29.8806 142.095 29.2597 141.925 28.7212 141.587C28.1936 141.248 27.7815 140.767 27.4848 140.144C27.1881 139.511 27.0397 138.768 27.0397 137.916C27.0397 137.053 27.1881 136.315 27.4848 135.703C27.7815 135.081 28.1936 134.6 28.7212 134.261C29.2597 133.923 29.8806 133.753 30.584 133.753C31.2544 133.753 31.8368 133.917 32.3314 134.245C32.8369 134.573 33.1776 135.004 33.3535 135.54H33.1721V131.279C33.1721 130.94 33.26 130.683 33.4359 130.509C33.6117 130.334 33.8645 130.246 34.1942 130.246C34.5239 130.246 34.7767 130.334 34.9525 130.509C35.1393 130.683 35.2328 130.94 35.2328 131.279V141.013C35.2328 141.352 35.1448 141.614 34.969 141.8C34.7932 141.974 34.5404 142.062 34.2107 142.062C33.881 142.062 33.6282 141.974 33.4524 141.8C33.2765 141.614 33.1886 141.352 33.1886 141.013V139.735L33.3699 140.226C33.2051 140.794 32.8699 141.248 32.3644 141.587C31.8588 141.925 31.2654 142.095 30.584 142.095ZM31.1609 140.538C31.5676 140.538 31.9248 140.439 32.2325 140.243C32.5402 140.046 32.7765 139.757 32.9413 139.374C33.1172 138.981 33.2051 138.495 33.2051 137.916C33.2051 137.042 33.0183 136.392 32.6446 135.966C32.2709 135.529 31.7764 135.31 31.1609 135.31C30.7543 135.31 30.3971 135.408 30.0894 135.605C29.7817 135.791 29.5399 136.08 29.3641 136.474C29.1992 136.856 29.1168 137.337 29.1168 137.916C29.1168 138.779 29.3036 139.434 29.6773 139.882C30.051 140.319 30.5455 140.538 31.1609 140.538Z" fill="#8B00CD"/>
<path d="M38.4244 142.062C38.0837 142.062 37.82 141.974 37.6331 141.8C37.4573 141.614 37.3694 141.352 37.3694 141.013V134.818C37.3694 134.48 37.4573 134.223 37.6331 134.048C37.809 133.873 38.0562 133.786 38.375 133.786C38.6937 133.786 38.9409 133.873 39.1168 134.048C39.2926 134.223 39.3805 134.48 39.3805 134.818V135.851H39.2157C39.3696 135.195 39.6718 134.698 40.1224 134.36C40.573 134.021 41.1719 133.819 41.9192 133.753C42.15 133.731 42.3314 133.792 42.4633 133.934C42.6061 134.065 42.6885 134.272 42.7105 134.556C42.7325 134.829 42.6666 135.053 42.5127 135.228C42.3698 135.392 42.15 135.49 41.8533 135.523L41.4906 135.556C40.8202 135.621 40.3147 135.829 39.974 136.179C39.6333 136.517 39.463 136.998 39.463 137.621V141.013C39.463 141.352 39.3751 141.614 39.1992 141.8C39.0234 141.974 38.7651 142.062 38.4244 142.062Z" fill="#8B00CD"/>
<path d="M47.669 142.095C46.7569 142.095 45.9711 141.925 45.3117 141.587C44.6523 141.248 44.1413 140.767 43.7786 140.144C43.4269 139.522 43.2511 138.784 43.2511 137.932C43.2511 137.102 43.4214 136.375 43.7621 135.753C44.1138 135.13 44.5918 134.644 45.1963 134.294C45.8117 133.934 46.5096 133.753 47.2899 133.753C47.8614 133.753 48.3724 133.846 48.823 134.032C49.2846 134.218 49.6747 134.485 49.9934 134.835C50.3231 135.184 50.5704 135.611 50.7353 136.113C50.9111 136.605 50.999 137.162 50.999 137.785C50.999 137.981 50.9276 138.134 50.7847 138.243C50.6528 138.342 50.4605 138.391 50.2077 138.391H44.916V137.211H49.5483L49.2846 137.457C49.2846 136.954 49.2076 136.534 49.0538 136.195C48.9109 135.856 48.6966 135.6 48.4109 135.425C48.1361 135.239 47.7899 135.146 47.3723 135.146C46.9107 135.146 46.5151 135.255 46.1854 135.474C45.8667 135.682 45.6194 135.982 45.4436 136.375C45.2787 136.758 45.1963 137.217 45.1963 137.752V137.867C45.1963 138.762 45.4051 139.434 45.8227 139.882C46.2513 140.319 46.8778 140.538 47.702 140.538C47.9878 140.538 48.3065 140.505 48.6582 140.439C49.0208 140.363 49.3615 140.237 49.6802 140.063C49.911 139.931 50.1143 139.877 50.2902 139.899C50.466 139.91 50.6034 139.97 50.7023 140.079C50.8122 140.188 50.8781 140.325 50.9001 140.489C50.9221 140.642 50.8891 140.8 50.8012 140.964C50.7243 141.128 50.5869 141.27 50.3891 141.39C50.0044 141.63 49.5593 141.811 49.0538 141.931C48.5592 142.04 48.0977 142.095 47.669 142.095Z" fill="#8B00CD"/>
<path d="M55.5817 142.095C55.1092 142.095 54.6091 142.045 54.0816 141.947C53.5541 141.849 53.0815 141.679 52.6639 141.439C52.488 141.33 52.3617 141.204 52.2847 141.062C52.2188 140.909 52.1913 140.762 52.2023 140.62C52.2243 140.467 52.2792 140.336 52.3672 140.226C52.4661 140.117 52.587 140.046 52.7298 140.013C52.8837 139.981 53.0485 140.008 53.2244 140.095C53.664 140.303 54.0761 140.45 54.4608 140.538C54.8454 140.614 55.2246 140.652 55.5982 140.652C56.1257 140.652 56.5159 140.565 56.7687 140.39C57.0324 140.205 57.1643 139.964 57.1643 139.669C57.1643 139.418 57.0764 139.227 56.9005 139.096C56.7357 138.954 56.4829 138.85 56.1422 138.784L54.4937 138.473C53.8123 138.342 53.2903 138.096 52.9276 137.735C52.576 137.364 52.4001 136.889 52.4001 136.31C52.4001 135.785 52.543 135.332 52.8287 134.95C53.1255 134.567 53.5321 134.272 54.0486 134.065C54.5652 133.857 55.1586 133.753 55.829 133.753C56.3126 133.753 56.7632 133.808 57.1808 133.917C57.6094 134.015 58.0215 134.174 58.4172 134.392C58.582 134.48 58.6919 134.595 58.7469 134.737C58.8128 134.879 58.8293 135.026 58.7963 135.179C58.7634 135.321 58.6974 135.452 58.5985 135.572C58.4996 135.682 58.3732 135.753 58.2193 135.785C58.0765 135.807 57.9116 135.774 57.7248 135.687C57.3841 135.512 57.0544 135.387 56.7357 135.31C56.428 135.234 56.1312 135.195 55.8455 135.195C55.307 135.195 54.9058 135.288 54.6421 135.474C54.3893 135.66 54.2629 135.906 54.2629 136.211C54.2629 136.441 54.3399 136.632 54.4937 136.785C54.6476 136.938 54.8839 137.042 55.2026 137.096L56.8511 137.408C57.5654 137.539 58.104 137.779 58.4666 138.129C58.8403 138.478 59.0271 138.948 59.0271 139.538C59.0271 140.336 58.7139 140.964 58.0875 141.423C57.461 141.871 56.6258 142.095 55.5817 142.095Z" fill="#8B00CD"/>
<path d="M66.4745 141.931C66.1118 141.931 65.8316 141.838 65.6338 141.652C65.4469 141.455 65.3535 141.177 65.3535 140.816V131.492C65.3535 131.131 65.4469 130.858 65.6338 130.672C65.8316 130.476 66.1118 130.377 66.4745 130.377H72.3597C72.6344 130.377 72.8432 130.448 72.9861 130.59C73.1399 130.733 73.2169 130.935 73.2169 131.197C73.2169 131.47 73.1399 131.683 72.9861 131.836C72.8432 131.978 72.6344 132.049 72.3597 132.049H67.3812V135.228H71.997C72.2827 135.228 72.497 135.299 72.6399 135.441C72.7828 135.583 72.8542 135.791 72.8542 136.064C72.8542 136.337 72.7828 136.545 72.6399 136.687C72.497 136.829 72.2827 136.9 71.997 136.9H67.3812V140.259H72.3597C72.6344 140.259 72.8432 140.33 72.9861 140.472C73.1399 140.614 73.2169 140.822 73.2169 141.095C73.2169 141.368 73.1399 141.576 72.9861 141.718C72.8432 141.86 72.6344 141.931 72.3597 141.931H66.4745Z" fill="#8B00CD"/>
<path d="M78.7023 145.044C78.1088 145.044 77.5318 144.99 76.9713 144.88C76.4218 144.771 75.9218 144.602 75.4712 144.372C75.2624 144.263 75.1195 144.132 75.0426 143.979C74.9767 143.826 74.9547 143.668 74.9767 143.504C75.0096 143.351 75.0756 143.214 75.1745 143.094C75.2844 142.974 75.4163 142.892 75.5701 142.848C75.724 142.805 75.8833 142.827 76.0482 142.914C76.5317 143.154 76.9878 143.307 77.4164 143.373C77.856 143.449 78.2297 143.488 78.5374 143.488C79.2738 143.488 79.8233 143.307 80.1859 142.947C80.5596 142.597 80.7464 142.073 80.7464 141.374V139.899H80.8948C80.7299 140.456 80.3837 140.904 79.8562 141.242C79.3397 141.57 78.7517 141.734 78.0923 141.734C77.367 141.734 76.7351 141.57 76.1965 141.242C75.658 140.904 75.2404 140.434 74.9437 139.833C74.6469 139.232 74.4986 138.533 74.4986 137.735C74.4986 137.135 74.581 136.594 74.7459 136.113C74.9217 135.621 75.1635 135.201 75.4712 134.851C75.7899 134.502 76.1691 134.234 76.6087 134.048C77.0593 133.852 77.5538 133.753 78.0923 133.753C78.7737 133.753 79.3672 133.923 79.8727 134.261C80.3892 134.589 80.7244 135.026 80.8783 135.572L80.7134 135.982V134.818C80.7134 134.48 80.8014 134.223 80.9772 134.048C81.164 133.873 81.4168 133.786 81.7355 133.786C82.0652 133.786 82.318 133.873 82.4938 134.048C82.6697 134.223 82.7576 134.48 82.7576 134.818V141.128C82.7576 142.428 82.4114 143.406 81.719 144.061C81.0267 144.717 80.0211 145.044 78.7023 145.044ZM78.6528 140.177C79.0814 140.177 79.4496 140.079 79.7573 139.882C80.065 139.686 80.3013 139.407 80.4662 139.046C80.642 138.675 80.7299 138.238 80.7299 137.735C80.7299 136.982 80.5431 136.392 80.1694 135.966C79.7958 135.529 79.2902 135.31 78.6528 135.31C78.2242 135.31 77.856 135.408 77.5483 135.605C77.2406 135.802 76.9988 136.08 76.823 136.441C76.6581 136.801 76.5757 137.233 76.5757 137.735C76.5757 138.489 76.7625 139.085 77.1362 139.522C77.5099 139.959 78.0154 140.177 78.6528 140.177Z" fill="#8B00CD"/>
<path d="M87.8105 142.095C87.1401 142.095 86.5851 141.974 86.1455 141.734C85.7059 141.483 85.3762 141.111 85.1564 140.62C84.9476 140.128 84.8432 139.516 84.8432 138.784V134.818C84.8432 134.469 84.9311 134.212 85.107 134.048C85.2828 133.873 85.5356 133.786 85.8653 133.786C86.195 133.786 86.4478 133.873 86.6236 134.048C86.8104 134.212 86.9038 134.469 86.9038 134.818V138.817C86.9038 139.385 87.0192 139.806 87.25 140.079C87.4808 140.352 87.849 140.489 88.3545 140.489C88.904 140.489 89.3546 140.303 89.7063 139.931C90.058 139.549 90.2338 139.046 90.2338 138.424V134.818C90.2338 134.469 90.3217 134.212 90.4976 134.048C90.6734 133.873 90.9262 133.786 91.2559 133.786C91.5856 133.786 91.8384 133.873 92.0142 134.048C92.201 134.212 92.2944 134.469 92.2944 134.818V141.013C92.2944 141.712 91.9593 142.062 91.2889 142.062C90.9702 142.062 90.7229 141.974 90.547 141.8C90.3712 141.614 90.2833 141.352 90.2833 141.013V139.768L90.5141 140.259C90.2833 140.849 89.9316 141.302 89.459 141.619C88.9974 141.936 88.4479 142.095 87.8105 142.095Z" fill="#8B00CD"/>
<path d="M95.4613 142.045C95.1316 142.045 94.8788 141.947 94.7029 141.75C94.5271 141.554 94.4392 141.281 94.4392 140.931V134.917C94.4392 134.556 94.5271 134.283 94.7029 134.097C94.8788 133.901 95.1316 133.802 95.4613 133.802C95.791 133.802 96.0437 133.901 96.2196 134.097C96.4064 134.283 96.4998 134.556 96.4998 134.917V140.931C96.4998 141.281 96.4119 141.554 96.2361 141.75C96.0602 141.947 95.8019 142.045 95.4613 142.045ZM95.4613 132.278C95.0766 132.278 94.7744 132.186 94.5546 132C94.3458 131.803 94.2414 131.535 94.2414 131.197C94.2414 130.847 94.3458 130.58 94.5546 130.394C94.7744 130.208 95.0766 130.115 95.4613 130.115C95.8569 130.115 96.1591 130.208 96.3679 130.394C96.5767 130.58 96.6812 130.847 96.6812 131.197C96.6812 131.535 96.5767 131.803 96.3679 132C96.1591 132.186 95.8569 132.278 95.4613 132.278Z" fill="#8B00CD"/>
<path d="M99.663 142.062C99.3333 142.062 99.0805 141.974 98.9047 141.8C98.7289 141.614 98.6409 141.352 98.6409 141.013V134.818C98.6409 134.48 98.7289 134.223 98.9047 134.048C99.0805 133.873 99.3278 133.786 99.6465 133.786C99.9652 133.786 100.213 133.873 100.388 134.048C100.564 134.223 100.652 134.48 100.652 134.818V135.933L100.471 135.523C100.713 134.944 101.086 134.507 101.592 134.212C102.108 133.906 102.691 133.753 103.339 133.753C103.988 133.753 104.521 133.873 104.938 134.114C105.356 134.354 105.669 134.72 105.878 135.212C106.087 135.692 106.191 136.304 106.191 137.047V141.013C106.191 141.352 106.103 141.614 105.927 141.8C105.751 141.974 105.499 142.062 105.169 142.062C104.839 142.062 104.581 141.974 104.394 141.8C104.218 141.614 104.13 141.352 104.13 141.013V137.146C104.13 136.523 104.01 136.069 103.768 135.785C103.537 135.501 103.174 135.359 102.68 135.359C102.075 135.359 101.592 135.55 101.229 135.933C100.877 136.304 100.702 136.801 100.702 137.424V141.013C100.702 141.712 100.355 142.062 99.663 142.062Z" fill="#8B00CD"/>
<path d="M111.96 142.095C111.125 142.095 110.4 141.925 109.784 141.587C109.169 141.248 108.691 140.767 108.35 140.144C108.009 139.511 107.839 138.768 107.839 137.916C107.839 137.271 107.932 136.698 108.119 136.195C108.317 135.682 108.597 135.245 108.96 134.884C109.323 134.513 109.757 134.234 110.262 134.048C110.768 133.852 111.334 133.753 111.96 133.753C112.795 133.753 113.521 133.923 114.136 134.261C114.752 134.6 115.23 135.081 115.57 135.703C115.911 136.326 116.081 137.064 116.081 137.916C116.081 138.56 115.983 139.139 115.785 139.653C115.598 140.166 115.323 140.609 114.96 140.98C114.598 141.341 114.164 141.619 113.658 141.816C113.153 142.002 112.587 142.095 111.96 142.095ZM111.96 140.538C112.367 140.538 112.724 140.439 113.032 140.243C113.339 140.046 113.576 139.757 113.741 139.374C113.916 138.981 114.004 138.495 114.004 137.916C114.004 137.042 113.818 136.392 113.444 135.966C113.07 135.529 112.576 135.31 111.96 135.31C111.554 135.31 111.196 135.408 110.889 135.605C110.581 135.791 110.339 136.08 110.163 136.474C109.998 136.856 109.916 137.337 109.916 137.916C109.916 138.779 110.103 139.434 110.477 139.882C110.85 140.319 111.345 140.538 111.96 140.538Z" fill="#8B00CD"/>
<path d="M45.0536 152.529C44.9218 152.529 44.8202 152.495 44.7487 152.428C44.6773 152.36 44.6416 152.264 44.6416 152.14V147.43C44.6416 147.306 44.6773 147.21 44.7487 147.142C44.8202 147.075 44.9218 147.041 45.0536 147.041H46.6441C47.5945 147.041 48.3252 147.277 48.8361 147.749C49.3526 148.216 49.6108 148.894 49.6108 149.781C49.6108 150.222 49.5448 150.614 49.413 150.956C49.2811 151.299 49.0889 151.587 48.8361 151.821C48.5834 152.049 48.273 152.225 47.9049 152.35C47.5423 152.469 47.1221 152.529 46.6441 152.529H45.0536ZM45.408 151.914H46.5947C46.9682 151.914 47.2924 151.87 47.5671 151.782C47.8418 151.693 48.0697 151.561 48.251 151.385C48.4378 151.208 48.5779 150.988 48.6713 150.723C48.7647 150.453 48.8114 150.139 48.8114 149.781C48.8114 149.07 48.6246 148.538 48.251 148.185C47.883 147.832 47.3308 147.656 46.5947 147.656H45.408V151.914Z" fill="#8B00CD"/>
<path d="M52.5533 152.599C52.1193 152.599 51.7457 152.521 51.4325 152.365C51.1249 152.205 50.8859 151.979 50.7156 151.688C50.5453 151.392 50.4601 151.045 50.4601 150.645C50.4601 150.251 50.5425 149.906 50.7074 149.61C50.8777 149.314 51.1084 149.083 51.3996 148.917C51.6962 148.751 52.0341 148.668 52.4132 148.668C52.6824 148.668 52.9241 148.712 53.1384 148.8C53.3581 148.883 53.5449 149.005 53.6987 149.166C53.8526 149.327 53.9679 149.524 54.0449 149.758C54.1273 149.986 54.1685 150.246 54.1685 150.536C54.1685 150.619 54.141 150.684 54.0861 150.731C54.0366 150.772 53.9625 150.793 53.8636 150.793H51.0452V150.342H53.674L53.5339 150.45C53.5339 150.181 53.49 149.952 53.4021 149.765C53.3197 149.573 53.1961 149.428 53.0312 149.33C52.8719 149.231 52.6714 149.182 52.4297 149.182C52.166 149.182 51.9407 149.241 51.7539 149.361C51.5671 149.475 51.4243 149.638 51.3254 149.851C51.2265 150.059 51.1771 150.3 51.1771 150.575V150.622C51.1771 151.089 51.2952 151.442 51.5314 151.68C51.7677 151.919 52.1083 152.038 52.5533 152.038C52.7291 152.038 52.9076 152.018 53.0889 151.976C53.2757 151.935 53.4543 151.859 53.6246 151.75C53.707 151.704 53.7812 151.683 53.8471 151.688C53.9185 151.688 53.9762 151.709 54.0201 151.75C54.0641 151.787 54.0916 151.833 54.1025 151.891C54.1135 151.942 54.1053 152 54.0778 152.062C54.0504 152.124 53.9982 152.179 53.9212 152.225C53.74 152.345 53.5229 152.438 53.2702 152.506C53.023 152.568 52.784 152.599 52.5533 152.599Z" fill="#8B00CD"/>
<path d="M56.4856 152.599C56.2384 152.599 55.9884 152.573 55.7357 152.521C55.4885 152.464 55.255 152.368 55.0352 152.233C54.9748 152.197 54.9308 152.153 54.9034 152.101C54.8814 152.044 54.8732 151.989 54.8787 151.937C54.8896 151.88 54.9144 151.831 54.9528 151.789C54.9913 151.748 55.038 151.725 55.0929 151.719C55.1533 151.709 55.2165 151.722 55.2824 151.758C55.4967 151.872 55.7027 151.953 55.9005 152C56.1038 152.046 56.3043 152.07 56.5021 152.07C56.8042 152.07 57.0322 152.018 57.1861 151.914C57.3399 151.81 57.4168 151.673 57.4168 151.501C57.4168 151.356 57.3646 151.244 57.2602 151.167C57.1613 151.084 57.0048 151.021 56.7905 150.98L56.0241 150.832C55.6835 150.759 55.4253 150.64 55.2495 150.474C55.0792 150.303 54.994 150.085 54.994 149.82C54.994 149.586 55.0599 149.384 55.1918 149.213C55.3291 149.036 55.5187 148.901 55.7604 148.808C56.0021 148.715 56.2796 148.668 56.5927 148.668C56.8345 148.668 57.0624 148.699 57.2767 148.761C57.4965 148.818 57.6942 148.907 57.87 149.026C57.936 149.062 57.9772 149.109 57.9936 149.166C58.0156 149.218 58.0184 149.272 58.0019 149.33C57.9909 149.381 57.9662 149.426 57.9277 149.462C57.8893 149.498 57.8398 149.522 57.7794 149.532C57.719 149.537 57.653 149.522 57.5816 149.485C57.4223 149.381 57.2575 149.309 57.0872 149.267C56.9224 149.221 56.7575 149.197 56.5927 149.197C56.2961 149.197 56.0708 149.252 55.917 149.361C55.7687 149.47 55.6945 149.612 55.6945 149.789C55.6945 149.924 55.7384 150.035 55.8263 150.124C55.9197 150.212 56.0653 150.277 56.2631 150.318L57.0295 150.466C57.3866 150.539 57.6558 150.655 57.8371 150.816C58.0184 150.972 58.109 151.185 58.109 151.455C58.109 151.808 57.9607 152.088 57.664 152.295C57.3728 152.498 56.98 152.599 56.4856 152.599Z" fill="#8B00CD"/>
<path d="M59.4555 152.568C59.3402 152.568 59.2495 152.534 59.1836 152.467C59.1177 152.399 59.0847 152.306 59.0847 152.186V149.08C59.0847 148.956 59.1177 148.863 59.1836 148.8C59.2495 148.733 59.3402 148.699 59.4555 148.699C59.5764 148.699 59.6698 148.733 59.7357 148.8C59.8017 148.863 59.8346 148.956 59.8346 149.08V152.186C59.8346 152.306 59.8017 152.399 59.7357 152.467C59.6753 152.534 59.5819 152.568 59.4555 152.568ZM59.4555 147.858C59.3072 147.858 59.1891 147.822 59.1012 147.749C59.0188 147.672 58.9776 147.57 58.9776 147.446C58.9776 147.311 59.0188 147.21 59.1012 147.142C59.1891 147.07 59.3072 147.033 59.4555 147.033C59.6149 147.033 59.733 147.07 59.8099 147.142C59.8923 147.21 59.9335 147.311 59.9335 147.446C59.9335 147.57 59.8923 147.672 59.8099 147.749C59.733 147.822 59.6149 147.858 59.4555 147.858Z" fill="#8B00CD"/>
<path d="M62.845 154C62.5483 154 62.2599 153.969 61.9797 153.907C61.705 153.844 61.4551 153.748 61.2298 153.619C61.1584 153.577 61.1089 153.528 61.0815 153.471C61.0595 153.419 61.054 153.364 61.065 153.307C61.0815 153.25 61.1089 153.198 61.1474 153.152C61.1914 153.11 61.2408 153.082 61.2957 153.066C61.3562 153.056 61.4166 153.069 61.477 153.105C61.7188 153.235 61.9495 153.323 62.1693 153.37C62.389 153.416 62.5978 153.44 62.7955 153.44C63.1856 153.44 63.4768 153.344 63.6691 153.152C63.8668 152.965 63.9657 152.69 63.9657 152.326V151.486H64.0399C63.963 151.776 63.7899 152.007 63.5207 152.179C63.257 152.35 62.9494 152.435 62.5978 152.435C62.2352 152.435 61.9193 152.358 61.6501 152.202C61.3809 152.041 61.1721 151.821 61.0238 151.54C60.8755 151.255 60.8013 150.925 60.8013 150.552C60.8013 150.266 60.8425 150.009 60.9249 149.781C61.0128 149.548 61.1337 149.35 61.2875 149.189C61.4468 149.023 61.6364 148.896 61.8561 148.808C62.0759 148.715 62.3231 148.668 62.5978 148.668C62.9549 148.668 63.2653 148.754 63.529 148.925C63.7927 149.096 63.963 149.327 64.0399 149.618L63.9493 149.727V149.042C63.9493 148.922 63.9822 148.834 64.0481 148.777C64.1141 148.715 64.2075 148.683 64.3283 148.683C64.4437 148.683 64.5343 148.715 64.6003 148.777C64.6662 148.834 64.6992 148.922 64.6992 149.042V152.233C64.6992 152.82 64.5398 153.261 64.2212 153.556C63.908 153.852 63.4493 154 62.845 154ZM62.7626 151.875C63.0098 151.875 63.2213 151.823 63.3971 151.719C63.5784 151.61 63.7158 151.457 63.8092 151.26C63.908 151.058 63.9575 150.822 63.9575 150.552C63.9575 150.142 63.8504 149.82 63.6361 149.586C63.4218 149.348 63.1307 149.228 62.7626 149.228C62.5154 149.228 62.3011 149.283 62.1198 149.392C61.944 149.496 61.8067 149.646 61.7078 149.843C61.6089 150.041 61.5594 150.277 61.5594 150.552C61.5594 150.956 61.6666 151.278 61.8808 151.517C62.1006 151.756 62.3945 151.875 62.7626 151.875Z" fill="#8B00CD"/>
<path d="M66.2719 152.583C66.1565 152.583 66.0658 152.552 65.9999 152.49C65.934 152.428 65.901 152.337 65.901 152.218V149.042C65.901 148.922 65.934 148.834 65.9999 148.777C66.0658 148.715 66.1565 148.683 66.2719 148.683C66.3872 148.683 66.4751 148.715 66.5356 148.777C66.6015 148.834 66.6344 148.922 66.6344 149.042V149.68L66.5438 149.563C66.6592 149.267 66.846 149.044 67.1042 148.894C67.3679 148.743 67.6673 148.668 68.0024 148.668C68.3265 148.668 68.593 148.722 68.8018 148.831C69.0105 148.94 69.1671 149.106 69.2715 149.33C69.3759 149.553 69.4281 149.836 69.4281 150.178V152.218C69.4281 152.337 69.3951 152.428 69.3292 152.49C69.2687 152.552 69.1781 152.583 69.0572 152.583C68.9364 152.583 68.843 152.552 68.777 152.49C68.7111 152.428 68.6781 152.337 68.6781 152.218V150.217C68.6781 149.88 68.6095 149.633 68.4721 149.477C68.3348 149.322 68.115 149.244 67.8129 149.244C67.4613 149.244 67.1783 149.348 66.9641 149.555C66.7553 149.758 66.6509 150.033 66.6509 150.38V152.218C66.6509 152.461 66.5246 152.583 66.2719 152.583Z" fill="#8B00CD"/>
<path d="M72.4711 152.599C72.0371 152.599 71.6635 152.521 71.3503 152.365C71.0427 152.205 70.8037 151.979 70.6334 151.688C70.4631 151.392 70.3779 151.045 70.3779 150.645C70.3779 150.251 70.4603 149.906 70.6251 149.61C70.7955 149.314 71.0262 149.083 71.3174 148.917C71.614 148.751 71.9519 148.668 72.331 148.668C72.6002 148.668 72.8419 148.712 73.0562 148.8C73.2759 148.883 73.4627 149.005 73.6165 149.166C73.7704 149.327 73.8857 149.524 73.9626 149.758C74.045 149.986 74.0863 150.246 74.0863 150.536C74.0863 150.619 74.0588 150.684 74.0038 150.731C73.9544 150.772 73.8802 150.793 73.7813 150.793H70.963V150.342H73.5918L73.4517 150.45C73.4517 150.181 73.4078 149.952 73.3199 149.765C73.2375 149.573 73.1138 149.428 72.949 149.33C72.7897 149.231 72.5892 149.182 72.3475 149.182C72.0838 149.182 71.8585 149.241 71.6717 149.361C71.4849 149.475 71.3421 149.638 71.2432 149.851C71.1443 150.059 71.0949 150.3 71.0949 150.575V150.622C71.0949 151.089 71.213 151.442 71.4492 151.68C71.6855 151.919 72.0261 152.038 72.4711 152.038C72.6469 152.038 72.8254 152.018 73.0067 151.976C73.1935 151.935 73.3721 151.859 73.5424 151.75C73.6248 151.704 73.6989 151.683 73.7649 151.688C73.8363 151.688 73.894 151.709 73.9379 151.75C73.9819 151.787 74.0093 151.833 74.0203 151.891C74.0313 151.942 74.0231 152 73.9956 152.062C73.9681 152.124 73.9159 152.179 73.839 152.225C73.6577 152.345 73.4407 152.438 73.188 152.506C72.9408 152.568 72.7018 152.599 72.4711 152.599Z" fill="#8B00CD"/>
<path d="M75.4062 152.583C75.2799 152.583 75.1838 152.552 75.1178 152.49C75.0519 152.428 75.0189 152.337 75.0189 152.218V149.042C75.0189 148.922 75.0519 148.834 75.1178 148.777C75.1838 148.715 75.2744 148.683 75.3898 148.683C75.5051 148.683 75.593 148.715 75.6535 148.777C75.7194 148.834 75.7524 148.922 75.7524 149.042V149.641H75.67C75.7579 149.33 75.9227 149.093 76.1644 148.933C76.4061 148.772 76.711 148.681 77.0791 148.66C77.167 148.655 77.2384 148.676 77.2934 148.722C77.3483 148.764 77.3785 148.837 77.384 148.94C77.3895 149.039 77.3648 149.119 77.3099 149.182C77.2549 149.239 77.1698 149.272 77.0544 149.283L76.9061 149.291C76.5435 149.327 76.2633 149.439 76.0655 149.625C75.8732 149.812 75.7771 150.069 75.7771 150.396V152.218C75.7771 152.337 75.7441 152.428 75.6782 152.49C75.6178 152.552 75.5271 152.583 75.4062 152.583Z" fill="#8B00CD"/>
<path fill-rule="evenodd" clip-rule="evenodd" d="M3.96871 149.292H37.7041V150.287H3.96871V149.292Z" fill="#8B00CD"/>
<path fill-rule="evenodd" clip-rule="evenodd" d="M83.3457 149.292H116.089V150.287H83.3457V149.292Z" fill="#8B00CD"/>
</svg>
