<svg width="66" height="69" viewBox="0 0 66 69" fill="none" xmlns="http://www.w3.org/2000/svg">
<path d="M22.7634 9.80127C24.8902 4.77752 30.9117 1.74894 36.2129 3.03672C41.5142 4.3245 44.0875 9.44101 41.9608 14.4648L23.0481 59.1389C20.9214 64.1627 14.8998 67.1913 9.59858 65.9035C4.29737 64.6157 1.72398 59.4992 3.85076 54.4755L22.7634 9.80127Z" fill="#E5DCFF"/>
<path d="M43.2088 9.09628C41.082 4.07254 35.0604 1.04395 29.7592 2.33174C24.458 3.61952 21.8846 8.73602 24.0114 13.7598L42.924 58.434C45.0508 63.4577 51.0724 66.4863 56.3736 65.1985C61.6748 63.9107 64.2482 58.7942 62.1214 53.7705L43.2088 9.09628Z" fill="#F6F2FF"/>
</svg>
